STARTFONT 2.1
FONT -jellyframe-tiny-medium-r-normal--8-80-75-75-c-80-iso10646-1
SIZE 8 75 75
FONTBOUNDINGBOX 8 8 0 0
STARTPROPERTIES 2
FONT_ASCENT 8
FONT_DESCENT 0
ENDPROPERTIES
CHARS 6
STARTCHAR U+0041
ENCODING 65
SWIDTH 500 0
DWIDTH 6 0
BBX 5 7 0 0
BITMAP
20
50
88
F8
88
88
88
ENDCHAR
STARTCHAR U+4E2D
ENCODING 20013
SWIDTH 1000 0
DWIDTH 8 0
BBX 8 8 0 0
BITMAP
10
10
FE
92
92
FE
10
10
ENDCHAR
STARTCHAR U+5C0F
ENCODING 23567
SWIDTH 1000 0
DWIDTH 8 0
BBX 8 8 0 0
BITMAP
10
10
54
54
92
10
10
10
ENDCHAR
STARTCHAR U+2103
ENCODING 8451
SWIDTH 1000 0
DWIDTH 8 0
BBX 8 8 0 0
BITMAP
62
94
98
90
90
90
62
00
ENDCHAR
STARTCHAR U+2605
ENCODING 9733
SWIDTH 1000 0
DWIDTH 8 0
BBX 8 8 0 0
BITMAP
10
10
54
38
FE
38
54
00
ENDCHAR
STARTCHAR U+2665
ENCODING 9829
SWIDTH 1000 0
DWIDTH 8 0
BBX 8 8 0 0
BITMAP
6C
FE
FE
FE
7C
38
10
00
ENDCHAR
ENDFONT
